<svg id="Social_Icons" data-name="Social Icons" xmlns="http://www.w3.org/2000/svg" viewBox="0 0 499.99 500"><g id="Instagram"><path d="M250,45c66.75,0,74.66.26,101,1.46,24.37,1.11,37.61,5.19,46.42,8.61a77.4,77.4,0,0,1,28.74,18.7,77.44,77.44,0,0,1,18.7,28.74c3.43,8.82,7.5,22,8.61,46.43,1.2,26.36,1.46,34.27,1.46,101s-.26,74.66-1.46,101c-1.11,24.38-5.18,37.61-8.61,46.42a82.78,82.78,0,0,1-47.44,47.45c-8.81,3.43-22.05,7.5-46.42,8.61-26.36,1.2-34.26,1.45-101,1.45s-74.66-.25-101-1.45c-24.38-1.11-37.62-5.18-46.43-8.61a77.61,77.61,0,0,1-28.74-18.7,77.4,77.4,0,0,1-18.7-28.75c-3.42-8.81-7.5-22-8.61-46.42C45.3,324.66,45,316.76,45,250s.26-74.66,1.46-101c1.11-24.38,5.19-37.61,8.61-46.43a77.44,77.44,0,0,1,18.7-28.74,77.48,77.48,0,0,1,28.74-18.7c8.81-3.42,22-7.5,46.43-8.61C175.34,45.3,183.25,45,250,45m0-45c-67.9,0-76.41.29-103.08,1.51S102.14,7,86.24,13.13A122.32,122.32,0,0,0,42,42,122.48,122.48,0,0,0,13.13,86.24C6.94,102.15,2.71,120.32,1.51,146.93S0,182.1,0,250s.29,76.41,1.51,103.08,5.43,44.78,11.62,60.68A122.4,122.4,0,0,0,42,458a122.48,122.48,0,0,0,44.28,28.84c15.9,6.17,34.07,10.4,60.68,11.62S182.1,500,250,500s76.4-.29,103.07-1.5,44.78-5.45,60.68-11.62a127.81,127.81,0,0,0,73.12-73.12c6.18-15.9,10.41-34.07,11.62-60.68S500,317.9,500,250s-.28-76.41-1.5-103.07-5.44-44.78-11.62-60.69A122.62,122.62,0,0,0,458,42a122.35,122.35,0,0,0-44.29-28.83C397.85,7,379.68,2.72,353.07,1.51S317.89,0,250,0"/><path d="M250,121.62A128.38,128.38,0,1,0,378.37,250,128.38,128.38,0,0,0,250,121.62m0,211.71A83.33,83.33,0,1,1,333.33,250,83.33,83.33,0,0,1,250,333.33"/><path d="M413.45,116.55a30,30,0,1,1-30-30,30,30,0,0,1,30,30"/></g></svg>