<svg id="Social_Icons" data-name="Social Icons" xmlns="http://www.w3.org/2000/svg" viewBox="0 0 500 406.34"><path id="Twitter" d="M0,360.24a290.24,290.24,0,0,0,157.24,46.1c190.46,0,298.05-160.86,291.58-305.15A208.08,208.08,0,0,0,500,48.09a205.3,205.3,0,0,1-58.91,16.14A102.77,102.77,0,0,0,486.18,7.48a205.39,205.39,0,0,1-65.13,24.91A102.47,102.47,0,0,0,346.16,0C280,0,231.29,61.78,246.24,126A291.1,291.1,0,0,1,34.82,18.76a102.7,102.7,0,0,0,31.75,137,102.24,102.24,0,0,1-46.49-12.84c-1.1,47.53,33,92,82.28,101.89a102.73,102.73,0,0,1-46.31,1.75,102.62,102.62,0,0,0,95.82,71.24A206.16,206.16,0,0,1,0,360.24Z"/></svg>